<?xml version="1.0" encoding="UTF-8"?>
<svg id="Layer_2" data-name="Layer 2" xmlns="http://www.w3.org/2000/svg" viewBox="0 0 111.82 10.21">
  <defs>
    <style>
      .cls-1 {
        fill: #231f20;
      }
    </style>
  </defs>
  <g id="Layer_1-2" data-name="Layer 1">
    <g>
      <path class="cls-1" d="m0,8.41h.6l1.08-2.36h4.37l.78,1.7h-3.75l-1.08,2.36h-.55l-1.45-1.7ZM3.86.71l.98,2.42-.96,2.37h-1.97L3.86.71Zm3.26,7.69h.61L4.13.01l2.81,2.81,3.16,7.29h-.72l-2.25-1.7Z"/>
      <path class="cls-1" d="m11.31,9.37l-1.59-1.6c.54.47,1.46.79,2.43.79,1.48,0,2.75-.78,2.75-2.24,0-.54-.19-.95-.49-1.28l1.35,1.34c.56.56.72.98.72,1.64,0,1.44-1.22,2.21-2.63,2.21-1.04,0-2.07-.4-2.53-.85Zm.65-4.01c-.52-.44-1.37-1.5-1.73-2,1.2,1.28,4.09,1.27,4.09,2.95,0,.1-.01.22-.03.31-.94-.47-1.78-.81-2.33-1.27Zm-1.67-3.33c0-1.04.92-1.61,1.96-1.61.88,0,1.59.39,2.32.97v-.7l1.7,1.7v.7c-.73-.58-1.44-.97-2.32-.97-1.01,0-1.9.52-1.9,1.49,0,.05,0,.11,0,.16-.95-.39-1.76-.83-1.76-1.74Z"/>
      <path class="cls-1" d="m17.35,8.41h.56v-4.01h5.23v1.7h-3.47v4.01h-.56l-1.76-1.7ZM17.92.01l1.76,1.7v2.15h-1.76V.01Zm5.23,8.4h.56V.01l1.76,1.7v8.4h-.56l-1.76-1.7Z"/>
      <path class="cls-1" d="m30.79,8.41h.56v-2.83l1.71-1.73.97,1.58-.92,1.06v3.61h-.62l-1.7-1.7ZM31.35.01l1.76,1.7v1.34l-1.76,1.83V.01Zm4.49,8.4h.77l-3.13-5.01L36.81.01l1.34,1.34-2.69,2.7,3.63,6.06h-.71l-2.54-1.7Z"/>
      <path class="cls-1" d="m39.06,8.41h5.59v-.54l1.7,1.7v.54h-5.53l-1.76-1.7Zm.56-7.86h4.85V.01l1.7,1.7v.54h-4.79v1.58h-1.76V.55Zm0,3.81h4.04v-.54l1.7,1.7v.54h-3.98v1.81h-1.76v-3.5Z"/>
      <path class="cls-1" d="m46.85,8.41h.56V.82l1.76,2.51v6.78h-.56l-1.76-1.7ZM47.51.01l3.26,2.05,2.08,2.85v2.73L47.51.01Zm5.21,8.4h.7V.01l1.76,1.7v8.4h-.7l-1.76-1.7Z"/>
      <path class="cls-1" d="m55.95.01l2.24,1.7,1.19,3.55-.84,2.44L55.95.01Zm2.28,8.4h.64l2.57-7.39,1,2.86-2.17,6.22h-.64l-1.4-1.7Zm3.44-8.41l2.24,1.7,1.23,3.56-.82,2.41-2.65-7.67Zm2.33,8.41h.64L67.55.01l1.4,1.7-2.91,8.4h-.64l-1.4-1.7Z"/>
      <path class="cls-1" d="m69.81,4.21c0-2.06,1.6-3.79,3.6-3.79,1.39,0,2.57.81,3.18,2-.46-.39-.97-.55-1.66-.55-2,0-3.6,1.73-3.6,3.79,0,.81.13,1.43.58,2-1.25-.6-2.09-1.92-2.09-3.46Zm2.15,4.6l-1.35-1.35c.75.7,1.73,1.12,2.8,1.12,2.3,0,4.2-1.96,4.2-4.37,0-1.19-.49-2.32-1.3-3.13l1.46,1.46c.9.9,1.48,1.89,1.48,3.37,0,2.37-1.87,4.31-4.14,4.31-1.43,0-2.32-.58-3.15-1.4Z"/>
      <path class="cls-1" d="m80,8.41h.56v-3.61h2.12l1.09,1.7h-1.5v3.61h-.59l-1.67-1.7Zm.56-7.87h2.24c1.21,0,2.25.48,2.31,1.69-.2-.03-.41-.05-.62-.05h-2.24v2.08h-1.7V.54Zm4.43,7.87h.73l-2.39-3.68c1.51-.17,2.36-1.22,2.36-2.41,0-.62-.25-1.12-.56-1.45l1.37,1.37c.46.46.76.89.76,1.66,0,1-.61,1.9-1.7,2.27l2.51,3.95h-.67l-2.42-1.7Z"/>
      <path class="cls-1" d="m86.88.55h2.93v1.7h-1.23l-1.7-1.7Zm2.93,7.86h.56V.55h2.91V.01l1.7,1.7v.54h-2.85v7.86h-.56l-1.76-1.7Z"/>
      <path class="cls-1" d="m95.49,8.41h.56v-4.01h5.23v1.7h-3.47v4.01h-.56l-1.76-1.7ZM96.06.01l1.76,1.7v2.15h-1.76V.01Zm5.23,8.4h.56V.01l1.76,1.7v8.4h-.56l-1.76-1.7Z"/>
      <path class="cls-1" d="m104.07.01l2.9,2.06.73,1.23-.76,1.19L104.07.01Zm2.58,8.4h.56v-3.39L110.48.01l1.34,1.52-2.84,4.26v4.32h-.56l-1.76-1.7Z"/>
    </g>
  </g>
</svg>